<mxfile host="app.diagrams.net" modified="2024-05-09T06:36:28.604Z" agent="Mozilla/5.0 (Windows NT 10.0; Win64; x64) AppleWebKit/537.36 (KHTML, like Gecko) Chrome/86.0.4240.75 Safari/537.36" etag="ka9AcJLYqdqFtPciyw-t" version="24.3.1" type="github">
  <diagram name="第 1 页" id="EOG2HZ5_NcPLtCkEs77e">
    <mxGraphModel dx="1744" dy="2010" grid="1" gridSize="10" guides="1" tooltips="1" connect="1" arrows="1" fold="1" page="1" pageScale="1" pageWidth="827" pageHeight="1169" math="0" shadow="0">
      <root>
        <mxCell id="0" />
        <mxCell id="1" parent="0" />
        <mxCell id="6PQGACXjwFTCAQi2liqI-1" value="" style="rounded=0;whiteSpace=wrap;html=1;" parent="1" vertex="1">
          <mxGeometry x="250" y="-130" width="500" height="560" as="geometry" />
        </mxCell>
        <mxCell id="6PQGACXjwFTCAQi2liqI-2" value="" style="whiteSpace=wrap;html=1;" parent="1" vertex="1">
          <mxGeometry x="260" y="140" width="480" height="280" as="geometry" />
        </mxCell>
        <mxCell id="6PQGACXjwFTCAQi2liqI-4" value="运维管理区" style="text;html=1;strokeColor=none;fillColor=none;align=center;verticalAlign=middle;whiteSpace=wrap;rounded=0;" parent="1" vertex="1">
          <mxGeometry x="260" y="140" width="70" height="30" as="geometry" />
        </mxCell>
        <mxCell id="6PQGACXjwFTCAQi2liqI-15" value="" style="rounded=0;whiteSpace=wrap;html=1;" parent="1" vertex="1">
          <mxGeometry x="260" y="-100" width="480" height="110" as="geometry" />
        </mxCell>
        <mxCell id="6PQGACXjwFTCAQi2liqI-16" value="DMZ区" style="text;html=1;strokeColor=none;fillColor=none;align=center;verticalAlign=middle;whiteSpace=wrap;rounded=0;" parent="1" vertex="1">
          <mxGeometry x="260" y="-100" width="60" height="30" as="geometry" />
        </mxCell>
        <mxCell id="6PQGACXjwFTCAQi2liqI-17" value="" style="rounded=0;whiteSpace=wrap;html=1;" parent="1" vertex="1">
          <mxGeometry x="270" y="-70" width="460" height="70" as="geometry" />
        </mxCell>
        <mxCell id="6PQGACXjwFTCAQi2liqI-18" value="出向" style="text;html=1;strokeColor=none;fillColor=none;align=center;verticalAlign=middle;whiteSpace=wrap;rounded=0;" parent="1" vertex="1">
          <mxGeometry x="260" y="-70" width="60" height="30" as="geometry" />
        </mxCell>
        <mxCell id="6PQGACXjwFTCAQi2liqI-19" value="研发" style="text;html=1;strokeColor=none;fillColor=none;align=center;verticalAlign=middle;whiteSpace=wrap;rounded=0;" parent="1" vertex="1">
          <mxGeometry x="242" y="-132" width="60" height="30" as="geometry" />
        </mxCell>
        <mxCell id="6PQGACXjwFTCAQi2liqI-20" value="" style="rounded=0;whiteSpace=wrap;html=1;" parent="1" vertex="1">
          <mxGeometry x="770" y="-130" width="480" height="700" as="geometry" />
        </mxCell>
        <mxCell id="6PQGACXjwFTCAQi2liqI-21" value="生产prd" style="text;html=1;strokeColor=none;fillColor=none;align=center;verticalAlign=middle;whiteSpace=wrap;rounded=0;" parent="1" vertex="1">
          <mxGeometry x="770" y="-132" width="60" height="30" as="geometry" />
        </mxCell>
        <mxCell id="6PQGACXjwFTCAQi2liqI-22" value="" style="rounded=0;whiteSpace=wrap;html=1;" parent="1" vertex="1">
          <mxGeometry x="780" y="-102" width="460" height="112" as="geometry" />
        </mxCell>
        <mxCell id="6PQGACXjwFTCAQi2liqI-23" value="DMZ区" style="text;html=1;strokeColor=none;fillColor=none;align=center;verticalAlign=middle;whiteSpace=wrap;rounded=0;" parent="1" vertex="1">
          <mxGeometry x="780" y="-105" width="60" height="30" as="geometry" />
        </mxCell>
        <mxCell id="6PQGACXjwFTCAQi2liqI-24" value="" style="rounded=0;whiteSpace=wrap;html=1;" parent="1" vertex="1">
          <mxGeometry x="787" y="-75" width="443" height="75" as="geometry" />
        </mxCell>
        <mxCell id="6PQGACXjwFTCAQi2liqI-25" value="出向" style="text;html=1;strokeColor=none;fillColor=none;align=center;verticalAlign=middle;whiteSpace=wrap;rounded=0;" parent="1" vertex="1">
          <mxGeometry x="777" y="-80" width="60" height="30" as="geometry" />
        </mxCell>
        <mxCell id="6PQGACXjwFTCAQi2liqI-26" value="四层网络代理" style="rounded=0;whiteSpace=wrap;html=1;fillColor=#6a00ff;fontColor=#ffffff;strokeColor=#3700CC;" parent="1" vertex="1">
          <mxGeometry x="440" y="-65" width="130" height="60" as="geometry" />
        </mxCell>
        <mxCell id="6PQGACXjwFTCAQi2liqI-27" value="四层网络代理" style="rounded=0;whiteSpace=wrap;html=1;fillColor=#6a00ff;fontColor=#ffffff;strokeColor=#3700CC;" parent="1" vertex="1">
          <mxGeometry x="913.5" y="-67.5" width="146.5" height="60" as="geometry" />
        </mxCell>
        <mxCell id="6PQGACXjwFTCAQi2liqI-28" value="" style="rounded=0;whiteSpace=wrap;html=1;" parent="1" vertex="1">
          <mxGeometry x="780" y="136" width="460" height="280" as="geometry" />
        </mxCell>
        <mxCell id="6PQGACXjwFTCAQi2liqI-29" value="运维管理区" style="text;html=1;strokeColor=none;fillColor=none;align=center;verticalAlign=middle;whiteSpace=wrap;rounded=0;" parent="1" vertex="1">
          <mxGeometry x="781" y="135" width="70" height="30" as="geometry" />
        </mxCell>
        <mxCell id="6PQGACXjwFTCAQi2liqI-33" value="imm-core（持续运维核心子系统）" style="rounded=0;whiteSpace=wrap;html=1;fillColor=#1ba1e2;fontColor=#ffffff;strokeColor=#006EAF;" parent="1" vertex="1">
          <mxGeometry x="957" y="196" width="120" height="60" as="geometry" />
        </mxCell>
        <mxCell id="6PQGACXjwFTCAQi2liqI-37" value="" style="rounded=0;whiteSpace=wrap;html=1;" parent="1" vertex="1">
          <mxGeometry x="780" y="20" width="460" height="100" as="geometry" />
        </mxCell>
        <mxCell id="6PQGACXjwFTCAQi2liqI-38" value="APP区" style="text;html=1;strokeColor=none;fillColor=none;align=center;verticalAlign=middle;whiteSpace=wrap;rounded=0;" parent="1" vertex="1">
          <mxGeometry x="770" y="15" width="60" height="30" as="geometry" />
        </mxCell>
        <mxCell id="6PQGACXjwFTCAQi2liqI-39" value="cos-finclip-oms&lt;br&gt;凡泰小程序管理端子系统" style="rounded=0;whiteSpace=wrap;html=1;fillColor=#1ba1e2;fontColor=#ffffff;strokeColor=#006EAF;" parent="1" vertex="1">
          <mxGeometry x="1089" y="45" width="141" height="60" as="geometry" />
        </mxCell>
        <mxCell id="6PQGACXjwFTCAQi2liqI-40" value="" style="rounded=0;whiteSpace=wrap;html=1;" parent="1" vertex="1">
          <mxGeometry x="250" y="-290" width="1000" height="150" as="geometry" />
        </mxCell>
        <mxCell id="6PQGACXjwFTCAQi2liqI-41" value="B端" style="text;html=1;strokeColor=none;fillColor=none;align=center;verticalAlign=middle;whiteSpace=wrap;rounded=0;" parent="1" vertex="1">
          <mxGeometry x="240" y="-290" width="60" height="30" as="geometry" />
        </mxCell>
        <mxCell id="6PQGACXjwFTCAQi2liqI-42" value="外部小程序平台" style="rounded=0;whiteSpace=wrap;html=1;fillColor=#f0a30a;fontColor=#FFFFFF;strokeColor=#BD7000;" parent="1" vertex="1">
          <mxGeometry x="691" y="-245" width="120" height="60" as="geometry" />
        </mxCell>
        <mxCell id="6PQGACXjwFTCAQi2liqI-55" value="" style="endArrow=classic;html=1;rounded=0;exitX=0.5;exitY=0;exitDx=0;exitDy=0;fillColor=#008a00;strokeColor=#005700;entryX=0.5;entryY=1;entryDx=0;entryDy=0;" parent="1" source="6PQGACXjwFTCAQi2liqI-26" target="6PQGACXjwFTCAQi2liqI-42" edge="1">
          <mxGeometry width="50" height="50" relative="1" as="geometry">
            <mxPoint x="640" y="200" as="sourcePoint" />
            <mxPoint x="515" y="5" as="targetPoint" />
          </mxGeometry>
        </mxCell>
        <mxCell id="6PQGACXjwFTCAQi2liqI-91" value="域名白名单" style="edgeLabel;html=1;align=center;verticalAlign=middle;resizable=0;points=[];" parent="6PQGACXjwFTCAQi2liqI-55" vertex="1" connectable="0">
          <mxGeometry x="-0.0485" y="-3" relative="1" as="geometry">
            <mxPoint as="offset" />
          </mxGeometry>
        </mxCell>
        <mxCell id="6PQGACXjwFTCAQi2liqI-57" value="" style="endArrow=classic;html=1;rounded=0;exitX=0.5;exitY=0;exitDx=0;exitDy=0;fillColor=#008a00;strokeColor=#005700;entryX=0.5;entryY=1;entryDx=0;entryDy=0;" parent="1" source="6PQGACXjwFTCAQi2liqI-27" target="6PQGACXjwFTCAQi2liqI-42" edge="1">
          <mxGeometry width="50" height="50" relative="1" as="geometry">
            <mxPoint x="515" y="-55" as="sourcePoint" />
            <mxPoint x="760" y="-175" as="targetPoint" />
          </mxGeometry>
        </mxCell>
        <mxCell id="6PQGACXjwFTCAQi2liqI-92" value="域名白名单" style="edgeLabel;html=1;align=center;verticalAlign=middle;resizable=0;points=[];" parent="6PQGACXjwFTCAQi2liqI-57" vertex="1" connectable="0">
          <mxGeometry x="-0.3274" relative="1" as="geometry">
            <mxPoint as="offset" />
          </mxGeometry>
        </mxCell>
        <mxCell id="6PQGACXjwFTCAQi2liqI-58" value="" style="endArrow=classic;html=1;rounded=0;fillColor=#008a00;strokeColor=#005700;entryX=0;entryY=0.5;entryDx=0;entryDy=0;exitX=1;exitY=0.5;exitDx=0;exitDy=0;" parent="1" source="xFKDh-lIvcyjJV9DgT24-10" target="6PQGACXjwFTCAQi2liqI-39" edge="1">
          <mxGeometry width="50" height="50" relative="1" as="geometry">
            <mxPoint x="1093" y="200" as="sourcePoint" />
            <mxPoint x="720" y="-175" as="targetPoint" />
          </mxGeometry>
        </mxCell>
        <mxCell id="Y_efudZfRpgbGNTOQu6w-6" value="部署凡泰生产小程序" style="edgeLabel;html=1;align=center;verticalAlign=middle;resizable=0;points=[];" parent="6PQGACXjwFTCAQi2liqI-58" vertex="1" connectable="0">
          <mxGeometry x="-0.4532" y="-1" relative="1" as="geometry">
            <mxPoint x="28" y="-1" as="offset" />
          </mxGeometry>
        </mxCell>
        <mxCell id="6PQGACXjwFTCAQi2liqI-65" value="minio" style="rounded=0;whiteSpace=wrap;html=1;fillColor=#1ba1e2;fontColor=#ffffff;strokeColor=#006EAF;" parent="1" vertex="1">
          <mxGeometry x="957" y="306" width="120" height="60" as="geometry" />
        </mxCell>
        <mxCell id="6PQGACXjwFTCAQi2liqI-68" value="" style="rounded=0;whiteSpace=wrap;html=1;" parent="1" vertex="1">
          <mxGeometry x="837" y="456" width="120" height="60" as="geometry" />
        </mxCell>
        <mxCell id="6PQGACXjwFTCAQi2liqI-69" value="" style="rounded=0;whiteSpace=wrap;html=1;" parent="1" vertex="1">
          <mxGeometry x="777" y="426" width="463" height="130" as="geometry" />
        </mxCell>
        <mxCell id="6PQGACXjwFTCAQi2liqI-70" value="边界区" style="text;html=1;strokeColor=none;fillColor=none;align=center;verticalAlign=middle;whiteSpace=wrap;rounded=0;" parent="1" vertex="1">
          <mxGeometry x="777" y="426" width="60" height="30" as="geometry" />
        </mxCell>
        <mxCell id="6PQGACXjwFTCAQi2liqI-71" value="nap-bdgw-apisix（跨内部环境边界去APISIX网关子系统）" style="rounded=0;whiteSpace=wrap;html=1;fillColor=#6a00ff;fontColor=#ffffff;strokeColor=#3700CC;" parent="1" vertex="1">
          <mxGeometry x="913.5" y="461" width="120" height="60" as="geometry" />
        </mxCell>
        <mxCell id="6PQGACXjwFTCAQi2liqI-66" value="" style="endArrow=classic;html=1;rounded=0;entryX=0.5;entryY=0;entryDx=0;entryDy=0;fillColor=#1ba1e2;strokeColor=#006EAF;exitX=1;exitY=0.5;exitDx=0;exitDy=0;" parent="1" source="Y_efudZfRpgbGNTOQu6w-16" target="6PQGACXjwFTCAQi2liqI-71" edge="1">
          <mxGeometry width="50" height="50" relative="1" as="geometry">
            <mxPoint x="543" y="140" as="sourcePoint" />
            <mxPoint x="730" y="200" as="targetPoint" />
          </mxGeometry>
        </mxCell>
        <mxCell id="6PQGACXjwFTCAQi2liqI-95" value="同步制品到生产" style="edgeLabel;html=1;align=center;verticalAlign=middle;resizable=0;points=[];" parent="6PQGACXjwFTCAQi2liqI-66" vertex="1" connectable="0">
          <mxGeometry x="0.0224" y="2" relative="1" as="geometry">
            <mxPoint x="-1" as="offset" />
          </mxGeometry>
        </mxCell>
        <mxCell id="6PQGACXjwFTCAQi2liqI-72" value="" style="endArrow=classic;html=1;rounded=0;fillColor=#1ba1e2;strokeColor=#006EAF;entryX=0.5;entryY=1;entryDx=0;entryDy=0;exitX=0.5;exitY=0;exitDx=0;exitDy=0;" parent="1" source="6PQGACXjwFTCAQi2liqI-71" target="6PQGACXjwFTCAQi2liqI-65" edge="1">
          <mxGeometry width="50" height="50" relative="1" as="geometry">
            <mxPoint x="880" y="236" as="sourcePoint" />
            <mxPoint x="876" y="126" as="targetPoint" />
          </mxGeometry>
        </mxCell>
        <mxCell id="6PQGACXjwFTCAQi2liqI-96" value="同步制品到生产" style="edgeLabel;html=1;align=center;verticalAlign=middle;resizable=0;points=[];" parent="6PQGACXjwFTCAQi2liqI-72" vertex="1" connectable="0">
          <mxGeometry x="0.1928" relative="1" as="geometry">
            <mxPoint as="offset" />
          </mxGeometry>
        </mxCell>
        <mxCell id="6PQGACXjwFTCAQi2liqI-75" value="子系统" style="rounded=0;whiteSpace=wrap;html=1;fillColor=#1ba1e2;fontColor=#ffffff;strokeColor=#006EAF;" parent="1" vertex="1">
          <mxGeometry x="110" y="-220" width="120" height="60" as="geometry" />
        </mxCell>
        <mxCell id="6PQGACXjwFTCAQi2liqI-76" value="外部系统" style="rounded=0;whiteSpace=wrap;html=1;fillColor=#f0a30a;fontColor=#000000;strokeColor=#BD7000;" parent="1" vertex="1">
          <mxGeometry x="110" y="-140" width="120" height="60" as="geometry" />
        </mxCell>
        <mxCell id="6PQGACXjwFTCAQi2liqI-77" value="网关代理" style="rounded=0;whiteSpace=wrap;html=1;fillColor=#6a00ff;fontColor=#ffffff;strokeColor=#3700CC;" parent="1" vertex="1">
          <mxGeometry x="110" y="-60" width="120" height="60" as="geometry" />
        </mxCell>
        <mxCell id="6PQGACXjwFTCAQi2liqI-79" value="" style="endArrow=classic;html=1;rounded=0;fillColor=#1ba1e2;strokeColor=#006EAF;" parent="1" edge="1">
          <mxGeometry width="50" height="50" relative="1" as="geometry">
            <mxPoint x="140" y="75" as="sourcePoint" />
            <mxPoint x="190" y="25" as="targetPoint" />
          </mxGeometry>
        </mxCell>
        <mxCell id="6PQGACXjwFTCAQi2liqI-80" value="请求" style="edgeLabel;html=1;align=center;verticalAlign=middle;resizable=0;points=[];" parent="6PQGACXjwFTCAQi2liqI-79" vertex="1" connectable="0">
          <mxGeometry x="-0.1371" y="10" relative="1" as="geometry">
            <mxPoint x="16" y="-2" as="offset" />
          </mxGeometry>
        </mxCell>
        <mxCell id="6PQGACXjwFTCAQi2liqI-81" value="" style="endArrow=classic;html=1;rounded=0;fillColor=#008a00;strokeColor=#005700;" parent="1" edge="1">
          <mxGeometry width="50" height="50" relative="1" as="geometry">
            <mxPoint x="150" y="155" as="sourcePoint" />
            <mxPoint x="200" y="105" as="targetPoint" />
          </mxGeometry>
        </mxCell>
        <mxCell id="6PQGACXjwFTCAQi2liqI-82" value="新增请求" style="edgeLabel;html=1;align=center;verticalAlign=middle;resizable=0;points=[];" parent="6PQGACXjwFTCAQi2liqI-81" vertex="1" connectable="0">
          <mxGeometry x="-0.1371" y="-6" relative="1" as="geometry">
            <mxPoint x="1" y="-13" as="offset" />
          </mxGeometry>
        </mxCell>
        <mxCell id="6PQGACXjwFTCAQi2liqI-99" value="" style="endArrow=classic;html=1;rounded=0;fillColor=#1ba1e2;strokeColor=#006EAF;entryX=0.5;entryY=0;entryDx=0;entryDy=0;exitX=0.5;exitY=1;exitDx=0;exitDy=0;" parent="1" source="6PQGACXjwFTCAQi2liqI-33" target="6PQGACXjwFTCAQi2liqI-65" edge="1">
          <mxGeometry width="50" height="50" relative="1" as="geometry">
            <mxPoint x="940" y="96" as="sourcePoint" />
            <mxPoint x="1044" y="96" as="targetPoint" />
          </mxGeometry>
        </mxCell>
        <mxCell id="6PQGACXjwFTCAQi2liqI-100" value="拉取制品" style="edgeLabel;html=1;align=center;verticalAlign=middle;resizable=0;points=[];" parent="6PQGACXjwFTCAQi2liqI-99" vertex="1" connectable="0">
          <mxGeometry x="-0.017" y="1" relative="1" as="geometry">
            <mxPoint as="offset" />
          </mxGeometry>
        </mxCell>
        <mxCell id="6PQGACXjwFTCAQi2liqI-60" value="" style="endArrow=classic;html=1;rounded=0;fillColor=#008a00;strokeColor=#005700;exitX=0.5;exitY=0;exitDx=0;exitDy=0;entryX=0.5;entryY=1;entryDx=0;entryDy=0;" parent="1" source="6PQGACXjwFTCAQi2liqI-33" target="xFKDh-lIvcyjJV9DgT24-10" edge="1">
          <mxGeometry width="50" height="50" relative="1" as="geometry">
            <mxPoint x="1104" y="210" as="sourcePoint" />
            <mxPoint x="1033" y="360" as="targetPoint" />
          </mxGeometry>
        </mxCell>
        <mxCell id="Y_efudZfRpgbGNTOQu6w-1" value="推送小程序制品、并触发部署" style="edgeLabel;html=1;align=center;verticalAlign=middle;resizable=0;points=[];" parent="6PQGACXjwFTCAQi2liqI-60" vertex="1" connectable="0">
          <mxGeometry x="-0.0153" y="1" relative="1" as="geometry">
            <mxPoint as="offset" />
          </mxGeometry>
        </mxCell>
        <mxCell id="xFKDh-lIvcyjJV9DgT24-1" value="" style="rounded=0;whiteSpace=wrap;html=1;" parent="1" vertex="1">
          <mxGeometry x="260" y="20" width="480" height="110" as="geometry" />
        </mxCell>
        <mxCell id="xFKDh-lIvcyjJV9DgT24-2" value="APP区" style="text;html=1;strokeColor=none;fillColor=none;align=center;verticalAlign=middle;whiteSpace=wrap;rounded=0;" parent="1" vertex="1">
          <mxGeometry x="250" y="15" width="60" height="30" as="geometry" />
        </mxCell>
        <mxCell id="xFKDh-lIvcyjJV9DgT24-3" value="cos-finclip-oms&lt;br&gt;凡泰小程序管理端子系统" style="rounded=0;whiteSpace=wrap;html=1;fillColor=#1ba1e2;fontColor=#ffffff;strokeColor=#006EAF;" parent="1" vertex="1">
          <mxGeometry x="570" y="40" width="141" height="60" as="geometry" />
        </mxCell>
        <mxCell id="6PQGACXjwFTCAQi2liqI-54" value="" style="endArrow=classic;html=1;rounded=0;exitX=0.5;exitY=0;exitDx=0;exitDy=0;fillColor=#008a00;strokeColor=#005700;entryX=0.5;entryY=1;entryDx=0;entryDy=0;" parent="1" source="Y_efudZfRpgbGNTOQu6w-25" target="6PQGACXjwFTCAQi2liqI-26" edge="1">
          <mxGeometry width="50" height="50" relative="1" as="geometry">
            <mxPoint x="630" y="190" as="sourcePoint" />
            <mxPoint x="580" y="350" as="targetPoint" />
          </mxGeometry>
        </mxCell>
        <mxCell id="6PQGACXjwFTCAQi2liqI-93" value="部署外部测试小程序" style="edgeLabel;html=1;align=center;verticalAlign=middle;resizable=0;points=[];" parent="6PQGACXjwFTCAQi2liqI-54" vertex="1" connectable="0">
          <mxGeometry x="-0.0047" y="-3" relative="1" as="geometry">
            <mxPoint as="offset" />
          </mxGeometry>
        </mxCell>
        <mxCell id="xFKDh-lIvcyjJV9DgT24-7" value="" style="endArrow=classic;html=1;rounded=0;exitX=1;exitY=0.5;exitDx=0;exitDy=0;fillColor=#008a00;strokeColor=#005700;entryX=0;entryY=0.5;entryDx=0;entryDy=0;" parent="1" source="Y_efudZfRpgbGNTOQu6w-25" target="xFKDh-lIvcyjJV9DgT24-3" edge="1">
          <mxGeometry width="50" height="50" relative="1" as="geometry">
            <mxPoint x="630" y="190" as="sourcePoint" />
            <mxPoint x="464" y="105" as="targetPoint" />
          </mxGeometry>
        </mxCell>
        <mxCell id="xFKDh-lIvcyjJV9DgT24-9" value="部署凡泰测试小程序" style="edgeLabel;html=1;align=center;verticalAlign=middle;resizable=0;points=[];" parent="xFKDh-lIvcyjJV9DgT24-7" vertex="1" connectable="0">
          <mxGeometry x="0.1561" relative="1" as="geometry">
            <mxPoint x="-14" as="offset" />
          </mxGeometry>
        </mxCell>
        <mxCell id="xFKDh-lIvcyjJV9DgT24-10" value="cos-mgr&lt;br&gt;移动应用服务管理端子系统" style="rounded=0;whiteSpace=wrap;html=1;fillColor=#1ba1e2;fontColor=#ffffff;strokeColor=#006EAF;" parent="1" vertex="1">
          <mxGeometry x="800" y="45" width="141" height="60" as="geometry" />
        </mxCell>
        <mxCell id="Y_efudZfRpgbGNTOQu6w-3" value="" style="endArrow=classic;html=1;rounded=0;fillColor=#008a00;strokeColor=#005700;exitX=0.5;exitY=0;exitDx=0;exitDy=0;entryX=0.5;entryY=1;entryDx=0;entryDy=0;" parent="1" source="xFKDh-lIvcyjJV9DgT24-10" target="6PQGACXjwFTCAQi2liqI-27" edge="1">
          <mxGeometry width="50" height="50" relative="1" as="geometry">
            <mxPoint x="1027" y="230" as="sourcePoint" />
            <mxPoint x="907" y="115" as="targetPoint" />
          </mxGeometry>
        </mxCell>
        <mxCell id="Y_efudZfRpgbGNTOQu6w-4" value="部署外部生产小程序" style="edgeLabel;html=1;align=center;verticalAlign=middle;resizable=0;points=[];" parent="Y_efudZfRpgbGNTOQu6w-3" vertex="1" connectable="0">
          <mxGeometry x="-0.0153" y="1" relative="1" as="geometry">
            <mxPoint as="offset" />
          </mxGeometry>
        </mxCell>
        <mxCell id="Y_efudZfRpgbGNTOQu6w-16" value="imm-core（持续运维核心子系统）" style="rounded=0;whiteSpace=wrap;html=1;fillColor=#1ba1e2;fontColor=#ffffff;strokeColor=#006EAF;" parent="1" vertex="1">
          <mxGeometry x="440" y="196" width="120" height="60" as="geometry" />
        </mxCell>
        <mxCell id="Y_efudZfRpgbGNTOQu6w-17" value="omm-coding-core(持续集成coding核心子系统)" style="rounded=0;whiteSpace=wrap;html=1;fillColor=#1ba1e2;fontColor=#ffffff;strokeColor=#006EAF;" parent="1" vertex="1">
          <mxGeometry x="440" y="316" width="120" height="60" as="geometry" />
        </mxCell>
        <mxCell id="Y_efudZfRpgbGNTOQu6w-20" value="" style="endArrow=classic;html=1;rounded=0;fillColor=#1ba1e2;strokeColor=#006EAF;entryX=0.5;entryY=0;entryDx=0;entryDy=0;exitX=0.5;exitY=1;exitDx=0;exitDy=0;" parent="1" source="Y_efudZfRpgbGNTOQu6w-16" target="Y_efudZfRpgbGNTOQu6w-17" edge="1">
          <mxGeometry width="50" height="50" relative="1" as="geometry">
            <mxPoint x="538" y="116" as="sourcePoint" />
            <mxPoint x="565" y="76" as="targetPoint" />
          </mxGeometry>
        </mxCell>
        <mxCell id="Y_efudZfRpgbGNTOQu6w-21" value="拉取制品" style="edgeLabel;html=1;align=center;verticalAlign=middle;resizable=0;points=[];" parent="Y_efudZfRpgbGNTOQu6w-20" vertex="1" connectable="0">
          <mxGeometry x="-0.017" y="1" relative="1" as="geometry">
            <mxPoint as="offset" />
          </mxGeometry>
        </mxCell>
        <mxCell id="Y_efudZfRpgbGNTOQu6w-22" value="" style="endArrow=classic;html=1;rounded=0;fillColor=#008a00;strokeColor=#005700;exitX=0.5;exitY=0;exitDx=0;exitDy=0;entryX=0.5;entryY=1;entryDx=0;entryDy=0;" parent="1" source="Y_efudZfRpgbGNTOQu6w-16" target="Y_efudZfRpgbGNTOQu6w-25" edge="1">
          <mxGeometry width="50" height="50" relative="1" as="geometry">
            <mxPoint x="630" y="210" as="sourcePoint" />
            <mxPoint x="397" y="105" as="targetPoint" />
          </mxGeometry>
        </mxCell>
        <mxCell id="Y_efudZfRpgbGNTOQu6w-23" value="推送小程序制品、并触发部署" style="edgeLabel;html=1;align=center;verticalAlign=middle;resizable=0;points=[];" parent="Y_efudZfRpgbGNTOQu6w-22" vertex="1" connectable="0">
          <mxGeometry x="-0.0153" y="1" relative="1" as="geometry">
            <mxPoint as="offset" />
          </mxGeometry>
        </mxCell>
        <mxCell id="Y_efudZfRpgbGNTOQu6w-25" value="cos-mgr&lt;br&gt;移动应用服务管理端子系统" style="rounded=0;whiteSpace=wrap;html=1;fillColor=#1ba1e2;fontColor=#ffffff;strokeColor=#006EAF;" parent="1" vertex="1">
          <mxGeometry x="290" y="40" width="141" height="60" as="geometry" />
        </mxCell>
      </root>
    </mxGraphModel>
  </diagram>
</mxfile>
